<svg width="30" height="30" viewBox="0 0 30 30" fill="none" xmlns="http://www.w3.org/2000/svg">
<path d="M15 16.5625C18.8818 16.5625 22.0312 13.4131 22.0312 9.53125C22.0312 5.64941 18.8818 2.5 15 2.5C11.1182 2.5 7.96875 5.64941 7.96875 9.53125C7.96875 13.4131 11.1182 16.5625 15 16.5625ZM21.25 18.125H18.5596C17.4756 18.623 16.2695 18.9062 15 18.9062C13.7305 18.9062 12.5293 18.623 11.4404 18.125H8.75C5.29785 18.125 2.5 20.9229 2.5 24.375V25.1562C2.5 26.4502 3.5498 27.5 4.84375 27.5H25.1562C26.4502 27.5 27.5 26.4502 27.5 25.1562V24.375C27.5 20.9229 24.7021 18.125 21.25 18.125Z" fill="#2D3435"/>
</svg>
